<svg enable-background="new 0 0 1024 222" viewBox="0 0 1024 222" xmlns="http://www.w3.org/2000/svg"><g fill="#1d1d1b"><path d="m1005.3 147.3c0 16-14.3 23-28.8 23-8.7 0-17-4.6-17-14.1 0-10.7 8.4-15.7 22.2-16.8 7.9-.6 15.8-1.2 23.6-4.4zm-28-15.2c-18.4 2.4-27.5 10.5-27.5 23.7 0 15.2 12.5 22.7 26.3 22.7 11.4 0 21.8-4.6 29.4-13.1.2 5.5 1.2 10.8 7.3 11.7 1.4.3 2.6.5 4.1.5 2.6 0 5.8-1.1 7.2-1.5v-7.1c-7.8 2.7-9.6 1.1-9.6-6.1v-42.9c0-18.3-12.6-24.5-28.6-24.5-17.2 0-31 7.5-32.4 26h9.3c1.7-13.7 10.3-17.8 23-17.8 14.1 0 19.6 6.7 19.6 16 0 2.8-.3 6.9-3.3 8.2-3 1.4-8.7 2.3-12 2.6z"/><path d="m935.7 97.6h-9.1v78.8h9.1zm.4-30.8h-10v13.5h10z"/><path d="m910.5 122.4c-2.7-18.3-14.6-26.9-32.7-26.9-23.6 0-36.2 19.8-36.2 41.7 0 23.3 11.1 41.4 36.2 41.4 19.8 0 30.7-11.9 33.9-29.4h-9.7c-2.1 13.1-10.7 21.1-24.2 21.1-18.9 0-26.5-16.6-26.5-33.1 0-16.4 7.8-33.5 26.5-33.5 12.2 0 20.2 7 23.4 18.7z"/><path d="m774.8 133.9c0-5.5.1-9.9 2-14.9 2.9-8.1 10.7-15.4 21.9-15.4 14.6 0 20.4 7.2 20.4 21.3v51.4h9.1v-51.6c0-6.5-.1-12.5-4-18.1-5.6-8.2-14.4-11.3-24-11.3-10.9 0-18.1 5.3-25.4 13.1v-11h-9.1v78.8h9.1z"/><path d="m691.5 131.5c1.8-14.9 10.3-27.8 26.5-27.8 16.4 0 24.9 12.5 24.9 27.8zm61.1 7.6c.2-28.3-13.1-43.7-34.7-43.7-22.5 0-36.2 18.9-36.2 41.8 0 23.3 11 41.2 36.2 41.2 20.1 0 29.5-11.4 34.1-26.3h-10.2c-2.7 11.6-12 18.1-23.9 18.1-17.5 0-26.6-14.1-26.5-31.2h61.2z"/><path d="m667.8 66.8h-9.1v109.5h9.1z"/><path d="m629.1 147.3c0 16-14.3 23-28.8 23-8.7 0-17-4.6-17-14.1 0-10.7 8.4-15.7 22.2-16.8 7.9-.6 15.8-1.2 23.6-4.4zm-28-15.2c-18.4 2.4-27.5 10.5-27.5 23.7 0 15.2 12.5 22.7 26.3 22.7 11.4 0 21.8-4.6 29.4-13.1.2 5.5 1.2 10.8 7.3 11.7 1.4.3 2.6.5 4.1.5 2.6 0 5.8-1.1 7.2-1.5v-7.1c-7.7 2.7-9.6 1.1-9.6-6.1v-42.9c0-18.3-12.6-24.5-28.6-24.5-17.2 0-31 7.5-32.4 26h9.3c1.7-13.7 10.3-17.8 23-17.8 14.2 0 19.6 6.7 19.6 16 0 2.8-.3 6.9-3.3 8.2-3.1 1.4-8.7 2.3-12 2.6z"/><path d="m528.1 176.4h10.2l30.6-78.8h-9.9l-25.5 67.5-25.6-67.5h-9.9z"/><path d="m495.1 134.2c0-30.4-20.4-44.4-43.1-44.4s-43.1 13.9-43.1 44.4c0 30.4 20.4 44.4 43.1 44.4s43.1-14 43.1-44.4m-22.8 0c0 10.8-3.2 25.7-20.3 25.7s-20.3-14.9-20.3-25.7 3.2-25.7 20.3-25.7 20.3 14.9 20.3 25.7"/><path d="m360.4 176.4h22.2v-43.9c0-9.3 3.1-20.1 20.4-20.1 2.1 0 4.4 0 6.3.3v-22.5c-1.4-.2-2.8-.3-4.3-.3-13.5 0-18.5 8.2-23.1 16.8h-.3v-14.6h-21.2z"/><path d="m338 69.2h-22.2v22.8h-11.4v15.9h11.4v51.2c0 10.9 3.5 18.2 22.6 18.2h2.9c3.5 0 7-.2 10.4-.3v-16.8c-1.6.2-3.2.3-4.6.3-9 0-9.2-1.9-9.2-6.8v-45.8h13.8v-15.8h-13.7z"/><path d="m279.7 151.6c-1.7 6-8.1 9.2-14.2 9.2-17.9 0-19.2-14.3-19.8-20.6h57.8v-4c0-38.5-23-46.4-39.6-46.4-36.9 0-40.4 32.5-40.4 42.6 0 34.7 18.2 46.1 42 46.1 14.4 0 31.2-6.6 37.1-26.9zm-33.4-25.8c1.3-11.1 6.8-17.7 17.3-17.7 7.1 0 15.8 4.1 17.1 17.7z"/></g><path d="m0 111c0 61.3 49.7 111 111 111s111-49.7 111-111-49.7-111-111-111-111 49.7-111 111" fill="#e51d2d"/><path d="m111.1 86.2h-23.8v87.7h24.7v-56.7c0-8.2 3-14.7 12.3-14.7 11.9 0 11.9 8.9 11.9 15.3v56.1h24.7v-56.7c0-8.2 3-14.7 12.3-14.7 11.9 0 11.9 8.9 11.9 15.3v56.1h23.3v-61.6c0-18.6-12.9-28.3-29.4-28.3-12.5 0-18.7 8.1-21.9 12.5-5.5-8.4-11.1-12.5-22.9-12.5-13.3 0-19.7 7.2-22.9 12.7h-.3v-10.5z" fill="#fff"/></svg>