<svg clip-rule="evenodd" fill-rule="evenodd" stroke-linejoin="round" stroke-miterlimit="2" viewBox="0 0 64 64" xmlns="http://www.w3.org/2000/svg"><g fill-rule="nonzero"><path d="m0 18.458c0 2.685-2.173 4.864-4.86 4.864h-18.46c-2.688 0-4.86-2.179-4.86-4.864v-18.457c0-2.682 2.172-4.865 4.86-4.865h18.46c2.687 0 4.86 2.183 4.86 4.865z" fill="#b3cb6d" transform="matrix(2.27111512 0 0 2.27062762 63.999942 11.044357)"/><g fill="#fff" transform="matrix(2.27062762 0 0 2.27062762 -130.442872 -5671.409676)"><path d="m58.873 2506.82 1.512 2.48 3.432-2.21v12.09h3.312v-15.84h-3.024z"/><path d="m77.257 2503.06c-3.936 0-6.144 2.3-6.144 8.3s2.208 8.11 6.144 8.11 6.144-2.11 6.144-8.11-2.208-8.3-6.144-8.3zm.024 2.88c1.92 0 2.712 1.29 2.712 5.42 0 3.89-.792 5.23-2.712 5.23s-2.76-1.34-2.76-5.23c0-4.13.84-5.42 2.76-5.42z"/></g></g></svg>