<svg enable-background="new 0 0 1024 1024" viewBox="0 0 1024 1024" xmlns="http://www.w3.org/2000/svg"><path d="m846 1024h-668c-97.9 0-178-80.1-178-178v-668c0-97.9 80.1-178 178-178h668c97.9 0 178 80.1 178 178v668c0 97.9-80.1 178-178 178z" fill="#e51794"/><path d="m218.5 135.6h610.5v744h-610.5z" fill="none"/><path d="m723.4 852.4h-438.3v-119.8l144.4-146.4c51.2-52.6 86.9-92.8 107-120.8s30.2-57.8 30.2-89.6c0-31.7-8.4-54.1-25.1-67.1s-40.4-19.5-71.2-19.5c-45.8 0-95.6 4.1-149.5 12.3l-24.6 3.1-7.1-109.6c66.9-20.5 136.2-30.7 207.9-30.7 143.3 0 215 64.5 215 193.5 0 50.5-10.9 94.2-32.8 131.1-21.8 36.9-61.4 81.6-118.8 134.1l-117.7 106.6h280.6z" fill="#fff"/></svg>