<svg clip-rule="evenodd" fill-rule="evenodd" stroke-linejoin="round" stroke-miterlimit="2" viewBox="0 0 64 64" xmlns="http://www.w3.org/2000/svg"><g fill-rule="nonzero"><path d="m0 18.455c0 2.692-2.178 4.868-4.865 4.868h-18.456c-2.687 0-4.864-2.176-4.864-4.868v-18.452c0-2.686 2.177-4.871 4.864-4.871h18.456c2.687 0 4.865 2.185 4.865 4.871z" fill="#b83a76" transform="matrix(2.2707125 0 0 2.270225 64.000032 11.051455)"/><path d="m0 18.746v-3.265l3.931-3.991c2.4-2.454 3.738-3.877 3.738-5.659 0-1.871-.864-2.428-3.013-2.428-1.896 0-4.35.417-4.35.417l-.193-2.988s2.731-.832 5.521-.832c4.214 0 5.996 1.84 5.996 5.274 0 2.844-1.086 4.458-4.129 7.219l-3.205 2.905h7.646v3.348z" fill="#fff" transform="matrix(2.270225 0 0 2.270225 18.44447 10.72108)"/></g></svg>