<svg clip-rule="evenodd" fill-rule="evenodd" stroke-linejoin="round" stroke-miterlimit="2" viewBox="0 0 64 64" xmlns="http://www.w3.org/2000/svg"><g fill-rule="nonzero"><path d="m0 18.458c0 2.686-2.178 4.864-4.865 4.864h-18.456c-2.687 0-4.864-2.178-4.864-4.864v-18.457c0-2.68 2.177-4.865 4.864-4.865h18.456c2.687 0 4.865 2.185 4.865 4.865z" fill="#c21d2d" transform="matrix(2.27063257 0 0 2.27063257 63.997747 11.044361)"/><path d="m0-17.079s2.568-1.002 5.358-1.002c4.85 0 6.44 1.644 6.44 5.076 0 2.012-.805 3.235-2.149 4.13 1.537.834 2.484 1.505 2.484 3.991 0 3.877-1.782 5.886-6.277 5.886-2.731 0-5.994-.953-5.994-.953l.192-2.928s3.125.533 5.245.533c1.896 0 2.874-.756 2.874-2.454 0-1.369-1.086-2.264-2.676-2.264h-3.708v-3.18h3.708c1.253 0 2.341-1.253 2.341-2.508 0-1.314-.865-1.981-2.761-1.981-2.174 0-4.825.499-4.825.499z" fill="#fff" transform="matrix(2.27063257 0 0 2.27063257 17.818748 51.306694)"/></g></svg>