<svg enable-background="new 0 0 1024 1024" viewBox="0 0 1024 1024" xmlns="http://www.w3.org/2000/svg"><path d="m846 1024h-668c-97.9 0-178-80.1-178-178v-668c0-97.9 80.1-178 178-178h668c97.9 0 178 80.1 178 178v668c0 97.9-80.1 178-178 178z" fill="#db0f31"/><path d="m218.5 135.6h610.5v744h-610.5z" fill="none"/><path d="m282 201.2c62.8-24.6 133-36.9 210.4-36.9 77.5 0 134 14.9 169.5 44.5s53.2 77.3 53.2 142.8-26.3 115.7-78.8 150.5c32.8 17.8 56.1 36.2 70.1 55.3s21 49.5 21 91.1c0 73.1-18.3 127.3-54.8 162.8s-95.1 53.2-175.6 53.2c-59.4 0-121.9-8.9-187.4-26.6l-32.8-8.2 7.2-107.5c76.5 13 140.6 19.5 192.5 19.5 70.3 0 105.5-30 105.5-90.1 0-25.2-9-45.4-27.1-60.4s-41.8-22.5-71.2-22.5h-136.1v-116.7h136.2c22.5 0 42.5-9.5 59.9-28.7 17.4-19.1 26.1-40.3 26.1-63.5 0-48.5-33.8-72.7-101.4-72.7-47.1 0-97.3 4.8-150.5 14.3l-26.6 4.1z" fill="#fff"/></svg>