<svg clip-rule="evenodd" fill-rule="evenodd" stroke-linejoin="round" stroke-miterlimit="2" viewBox="0 0 64 65" xmlns="http://www.w3.org/2000/svg"><g fill-rule="nonzero"><path d="m0 18.447c0 2.694-2.177 4.871-4.864 4.871h-18.456c-2.687 0-4.865-2.177-4.865-4.871v-18.449c0-2.686 2.178-4.869 4.865-4.869h18.456c2.687 0 4.864 2.183 4.864 4.869z" fill="#008458" transform="matrix(2.2707125 0 0 2.2703875 63.999798 11.059063)"/><path d="m0-18.748v3.349h-8.232l-.475 3.991s1.733-.671 3.294-.671c3.763 0 5.972 1.674 5.972 5.551 0 4.156-2.292 6.528-6.308 6.528-2.874 0-6.528-1.031-6.528-1.031l.42-2.846s3.372.529 5.634.529c1.813 0 2.82-1.002 2.82-2.761 0-1.867-.81-2.622-2.567-2.622-1.956 0-3.488.474-3.488.474l-2.287-.53.499-9.961z" fill="#fff" transform="matrix(2.2703875 0 0 2.2703875 45.302048 53.282625)"/></g></svg>