<svg enable-background="new 0 0 1024 1024" viewBox="0 0 1024 1024" xmlns="http://www.w3.org/2000/svg"><path d="m846 1024h-668c-97.9 0-178-80.1-178-178v-668c0-97.9 80.1-178 178-178h668c97.9 0 178 80.1 178 178v668c0 97.9-80.1 178-178 178z" fill="#138e70"/><path d="m218.5 135.6h610.5v744h-610.5z" fill="none"/><path d="m720.3 176.6v122.9h-302.1l-17.4 146.4c42.3-16.4 82.6-24.6 120.8-24.6 146.1 0 219.1 67.9 219.1 203.8 0 76.5-20.1 135.5-60.4 177.2s-97.3 62.5-171 62.5c-31.4 0-67.1-3.1-107-9.2s-71.9-12.6-95.8-19.5l-36.9-9.2 15.4-104.5c82.6 13 151.5 19.5 206.8 19.5 33.4 0 59-8.9 76.8-26.6s26.6-43.2 26.6-76.3-7.5-57.2-22.5-72.2-36.2-22.5-63.5-22.5c-45.8 0-86 4.4-120.8 13.3l-15.4 4.1-84-19.5 18.4-365.6h412.9z" fill="#fff"/></svg>