<svg enable-background="new 0 0 1024 1024" viewBox="0 0 1024 1024" xmlns="http://www.w3.org/2000/svg"><path d="m846 1024h-668c-97.9 0-178-80.1-178-178v-668c0-97.9 80.1-178 178-178h668c97.9 0 178 80.1 178 178v668c0 97.9-80.1 178-178 178z" fill="#8886bd"/><path d="m218.5 135.6h610.5v744h-610.5z" fill="none"/><path d="m726.4 302.5c-69.6-10.2-130.1-15.4-181.3-15.4-96.9 0-145.4 52.6-145.4 157.7l21.5-6.2c45.1-13 80.9-19.5 107.5-19.5 77.1 0 135.2 17.8 174.1 53.2s58.4 90.6 58.4 165.4-21.9 131.2-65.5 169.5c-43.7 38.2-107 57.3-190 57.3-82.9 0-145.6-30.2-187.9-90.6s-63.5-149.3-63.5-266.8 24.2-204 72.7-259.6 118.1-83.5 208.9-83.5c53.3 0 110.3 7.5 171 22.5l31.7 7.2zm-209.9 239.7c-32.1 0-65.5 5.8-100.4 17.4l-17.4 5.1c0 118.1 38.2 177.2 114.7 177.2 32.8 0 58-9 75.8-27.1s26.6-43.5 26.6-76.3c0-64.2-33.1-96.3-99.3-96.3z" fill="#fff"/></svg>