<svg clip-rule="evenodd" fill-rule="evenodd" stroke-linejoin="round" stroke-miterlimit="2" viewBox="0 0 64 65" xmlns="http://www.w3.org/2000/svg"><g fill-rule="nonzero"><path d="m0 18.446c0 2.692-2.177 4.87-4.864 4.87h-18.456c-2.687 0-4.865-2.178-4.865-4.87v-18.452c0-2.683 2.178-4.864 4.865-4.864h18.456c2.687 0 4.864 2.181 4.864 4.864z" fill="#8062a1" transform="matrix(2.2707125 0 0 2.2707125 64 11.058375)"/><path d="m0 2.736c0 2.676.781 4.826 3.127 4.826 1.782 0 2.786-1.033 2.786-2.821 0-1.727-.974-2.623-2.702-2.623-1.507 0-3.211.618-3.211.618m8.93-7.14s-2.85-.42-5.191-.42c-2.538 0-3.708 1.758-3.708 4.294 0 .027 2.172-.699 3.511-.699 4.159 0 6.337 1.818 6.337 5.97 0 4.159-2.599 6.169-6.752 6.169-4.91 0-7.057-3.601-7.057-9.458 0-7.032 2.952-9.626 7.669-9.626 2.341 0 5.522.811 5.522.811z" fill="#fff" transform="matrix(2.2707125 0 0 2.2707125 25.04 28.81075)"/></g></svg>