<svg enable-background="new 0 0 1024 1024" viewBox="0 0 1024 1024" xmlns="http://www.w3.org/2000/svg"><path d="m846 1024h-668c-97.9 0-178-80.1-178-178v-668c0-97.9 80.1-178 178-178h668c97.9 0 178 80.1 178 178v668c0 97.9-80.1 178-178 178z" fill="#85cee4"/><path d="m218.5 135.6h610.5v744h-610.5z" fill="none"/><path d="m325 213c44.4-32.4 103.8-48.6 178.2-48.6s134.5 16.4 180.2 49.2 68.6 78.2 68.6 136.2c0 39.6-4.8 69.3-14.3 89.1s-29.3 41.6-59.4 65.5c30 25.3 51.5 49.2 64.5 71.7s19.5 53.6 19.5 93.2c0 66.9-23.9 116.2-71.7 148s-110.2 47.6-187.4 47.6c-170.7 0-256-61.4-256-184.3 0-43.7 6.7-77.6 20-101.9s35-49 65-74.2c-28.7-23.2-48.1-45.9-58.4-68.1-10.2-22.2-15.4-51.4-15.4-87.6.1-58.2 22.3-103.4 66.6-135.8zm73.7 434.6c0 60.1 35.3 90.1 106 90.1s106-30 106-90.1c0-35.5-20.1-61.1-60.4-76.8h-90.1c-41 15.7-61.5 41.3-61.5 76.8zm106.5-356.3c-30.7 0-54.3 6.8-70.7 20.5s-24.6 34.5-24.6 62.5 16.7 53.6 50.2 76.8h90.1c33.4-23.2 50.2-49.8 50.2-79.9.1-53.3-31.7-79.9-95.2-79.9z" fill="#fff"/></svg>