<svg clip-rule="evenodd" fill-rule="evenodd" stroke-linejoin="round" stroke-miterlimit="2" viewBox="0 0 64 65" xmlns="http://www.w3.org/2000/svg"><g fill-rule="nonzero"><path d="m0 18.458c0 2.685-2.173 4.864-4.86 4.864h-18.46c-2.688 0-4.86-2.179-4.86-4.864v-18.457c0-2.682 2.172-4.865 4.86-4.865h18.46c2.687 0 4.86 2.183 4.86 4.865z" fill="#40b2cb" transform="matrix(2.2711125 0 0 2.27063125 64 11.044375)"/><path d="m0-7.818c0 .893.474 1.567 1.368 2.179h2.454c.889-.612 1.364-1.286 1.364-2.179 0-1.392-.889-2.173-2.593-2.173-1.674 0-2.593.781-2.593 2.173m5.467 7.538c0-.896-.558-1.677-1.645-2.094h-2.454c-1.146.443-1.674 1.198-1.674 2.094 0 1.697.948 2.453 2.844 2.453 1.898 0 2.929-.756 2.929-2.453m3.847-8.12c0 2.202-.415 2.927-2.005 4.212 1.477 1.226 2.287 2.173 2.287 4.49 0 3.876-3.181 5.328-7.058 5.328s-6.973-1.144-6.973-5.021c0-2.54.835-3.571 2.317-4.797-1.592-1.285-2.01-2.288-2.01-4.242 0-3.181 2.65-5.018 6.666-5.018 3.961 0 6.776 1.813 6.776 5.048" fill="#fff" transform="matrix(2.2711125 0 0 2.2711125 26.139375 40.877813)"/></g></svg>