<svg enable-background="new 0 0 1024 1024" viewBox="0 0 1024 1024" xmlns="http://www.w3.org/2000/svg"><path d="m846 1024h-668c-97.9 0-178-80.1-178-178v-668c0-97.9 80.1-178 178-178h668c97.9 0 178 80.1 178 178v668c0 97.9-80.1 178-178 178z" fill="#b68153"/><path d="m218.5 135.6h610.5v744h-610.5z" fill="none"/><path d="m472.5 741.8c90.8 0 136.2-55.3 136.2-165.9l-21.5 7.2c-47.1 15.7-83 23.5-107.5 23.5-74.4 0-131.8-18.1-172-54.3-40.3-36.2-60.4-89.9-60.4-161.3s22.2-127 66.6-166.9 107.3-59.9 188.9-59.9 143.9 30.2 186.9 90.6 64.5 150.2 64.5 269.3-23.9 205.7-71.7 259.6-117.8 80.9-209.9 80.9c-53.2 0-110.3-7.5-171-22.5l-31.7-7.2 12.1-108.4c69.6 10.2 133.1 15.3 190.5 15.3zm19.4-258c31.4 0 65.2-6.1 101.4-18.4l16.4-5.1c0-115.4-38.2-173.1-114.7-173.1-32.8 0-58 9-75.8 27.1s-26.6 43.5-26.6 76.3c0 62.1 33.1 93.2 99.3 93.2z" fill="#fff"/></svg>