<svg clip-rule="evenodd" fill-rule="evenodd" stroke-linejoin="round" stroke-miterlimit="2" viewBox="0 0 64 64" xmlns="http://www.w3.org/2000/svg"><g fill-rule="nonzero"><path d="m0 18.459c0 2.691-2.172 4.864-4.859 4.864h-18.461c-2.686 0-4.86-2.173-4.86-4.864v-18.457c0-2.68 2.174-4.866 4.86-4.866h18.461c2.687 0 4.859 2.186 4.859 4.866z" fill="#ad7d4f" transform="matrix(2.27111512 0 0 2.27054637 64.000065 11.04392)"/><path d="m0-2.959c0-2.595-.78-4.713-3.122-4.713-1.787 0-2.79 1.032-2.79 2.814 0 1.705 1.003 2.539 2.706 2.539 1.508 0 3.206-.64 3.206-.64m-8.924 7.254s2.844.418 5.184.418c2.539 0 3.715-1.703 3.715-4.519 0-.03-2.178.835-3.517.835-3.989 0-6.331-1.896-6.331-5.887 0-3.876 2.594-6.162 6.751-6.162 4.855 0 7.058 3.598 7.058 9.427 0 7.309-2.958 9.654-7.676 9.654-2.34 0-5.52-.808-5.52-.808z" fill="#fff" transform="matrix(2.27054637 0 0 2.27054637 38.732293 35.359256)"/></g></svg>